<svg xmlns="http://www.w3.org/2000/svg" viewBox="0 0 2048 2048">
  <g fill="#5718D2">
    <path d="M 690 308 L 688 310 L 684 310 L 683 309 L 682 309 L 681 310 L 674 310 L 672 312 L 667 312 L 666 313 L 665 313 L 664 314 L 663 314 L 662 315 L 660 315 L 658 317 L 657 317 L 655 319 L 653 319 L 639 333 L 639 335 L 637 337 L 637 338 L 634 341 L 634 345 L 632 347 L 632 350 L 630 352 L 630 356 L 629 357 L 629 362 L 627 364 L 627 367 L 625 369 L 625 373 L 623 375 L 624 376 L 624 377 L 622 379 L 622 383 L 620 385 L 620 388 L 618 390 L 618 394 L 617 395 L 617 398 L 615 400 L 615 404 L 614 405 L 613 405 L 613 409 L 611 411 L 611 416 L 610 417 L 610 421 L 608 423 L 608 426 L 606 428 L 606 432 L 604 434 L 605 435 L 605 436 L 603 438 L 603 441 L 601 443 L 601 447 L 599 449 L 599 452 L 598 453 L 598 458 L 596 460 L 596 464 L 594 466 L 594 469 L 593 470 L 593 471 L 592 472 L 592 475 L 591 476 L 591 479 L 589 481 L 589 485 L 587 487 L 587 490 L 586 491 L 586 492 L 585 493 L 586 494 L 585 495 L 585 496 L 584 497 L 584 500 L 582 502 L 582 506 L 580 508 L 580 513 L 579 514 L 579 517 L 577 519 L 577 523 L 575 525 L 575 528 L 573 530 L 573 534 L 572 535 L 572 538 L 570 540 L 570 544 L 569 545 L 568 545 L 568 551 L 566 553 L 567 554 L 567 555 L 565 557 L 565 561 L 564 562 L 563 562 L 563 566 L 561 568 L 561 571 L 560 572 L 560 576 L 558 578 L 558 581 L 556 583 L 556 587 L 554 589 L 554 590 L 555 591 L 553 593 L 553 597 L 551 599 L 551 602 L 549 604 L 549 608 L 548 609 L 548 612 L 546 614 L 546 618 L 545 619 L 544 619 L 544 625 L 542 627 L 542 628 L 541 629 L 541 635 L 539 637 L 539 640 L 537 642 L 537 646 L 535 648 L 535 651 L 534 652 L 534 656 L 533 657 L 532 657 L 532 661 L 530 663 L 530 666 L 529 667 L 529 671 L 527 673 L 527 676 L 525 678 L 525 682 L 523 684 L 523 687 L 522 688 L 522 693 L 520 695 L 520 699 L 518 701 L 518 704 L 517 705 L 517 706 L 516 707 L 517 708 L 516 709 L 516 710 L 515 711 L 515 714 L 513 716 L 513 720 L 511 722 L 511 727 L 510 728 L 510 731 L 508 733 L 508 737 L 506 739 L 506 742 L 504 744 L 504 748 L 503 749 L 503 752 L 501 754 L 501 758 L 500 759 L 499 759 L 499 763 L 497 765 L 497 766 L 498 767 L 496 769 L 496 773 L 494 775 L 494 778 L 492 780 L 492 784 L 491 785 L 491 788 L 489 790 L 489 794 L 487 796 L 487 799 L 485 801 L 485 806 L 484 807 L 484 811 L 482 813 L 482 815 L 481 816 L 480 816 L 480 820 L 478 822 L 478 823 L 479 824 L 477 826 L 477 832 L 475 834 L 475 837 L 473 839 L 473 843 L 472 844 L 472 847 L 470 849 L 470 853 L 469 854 L 468 854 L 468 858 L 466 860 L 466 865 L 465 866 L 465 870 L 464 871 L 463 871 L 463 875 L 461 877 L 461 880 L 460 881 L 460 882 L 459 883 L 460 884 L 460 885 L 458 887 L 458 890 L 456 892 L 456 896 L 454 898 L 454 901 L 453 902 L 453 906 L 451 908 L 451 911 L 449 913 L 449 917 L 447 919 L 447 924 L 446 925 L 446 927 L 445 928 L 444 928 L 444 934 L 442 936 L 442 939 L 441 940 L 441 941 L 440 942 L 441 943 L 440 944 L 440 945 L 439 946 L 439 949 L 437 951 L 437 955 L 435 957 L 435 960 L 434 961 L 434 964 L 432 966 L 432 972 L 430 974 L 430 977 L 428 979 L 428 982 L 427 983 L 427 987 L 425 989 L 425 993 L 424 994 L 423 994 L 423 998 L 422 999 L 422 1004 L 420 1006 L 420 1008 L 418 1010 L 418 1015 L 416 1017 L 416 1020 L 415 1021 L 415 1025 L 413 1027 L 413 1030 L 411 1032 L 411 1036 L 409 1038 L 409 1041 L 408 1042 L 408 1046 L 406 1048 L 406 1051 L 404 1053 L 404 1058 L 403 1059 L 403 1063 L 401 1065 L 401 1068 L 399 1070 L 399 1074 L 397 1076 L 397 1079 L 396 1080 L 396 1085 L 394 1087 L 394 1091 L 392 1093 L 392 1096 L 390 1098 L 390 1099 L 391 1100 L 390 1101 L 390 1102 L 389 1103 L 389 1106 L 387 1108 L 387 1112 L 385 1114 L 385 1125 L 387 1127 L 387 1131 L 388 1131 L 389 1132 L 389 1133 L 390 1134 L 390 1135 L 395 1140 L 396 1140 L 397 1141 L 399 1141 L 401 1143 L 403 1143 L 405 1145 L 626 1145 L 627 1146 L 628 1146 L 629 1147 L 630 1147 L 631 1148 L 632 1148 L 634 1150 L 634 1151 L 636 1153 L 636 1155 L 637 1156 L 637 1165 L 636 1166 L 636 1170 L 634 1172 L 634 1174 L 632 1176 L 632 1179 L 630 1181 L 630 1184 L 629 1185 L 629 1189 L 627 1191 L 627 1193 L 625 1195 L 625 1198 L 624 1199 L 624 1200 L 623 1201 L 624 1202 L 623 1203 L 623 1204 L 622 1205 L 622 1208 L 620 1210 L 620 1214 L 618 1216 L 618 1219 L 617 1220 L 617 1223 L 615 1225 L 615 1227 L 613 1229 L 613 1233 L 611 1235 L 611 1240 L 610 1241 L 610 1243 L 609 1244 L 608 1244 L 608 1248 L 606 1250 L 606 1253 L 605 1254 L 605 1255 L 604 1256 L 605 1257 L 605 1258 L 603 1260 L 603 1263 L 601 1265 L 601 1269 L 599 1271 L 599 1272 L 598 1273 L 598 1277 L 596 1279 L 596 1284 L 594 1286 L 594 1288 L 592 1290 L 592 1293 L 591 1294 L 591 1298 L 589 1300 L 589 1303 L 587 1305 L 587 1309 L 586 1310 L 586 1311 L 584 1313 L 584 1319 L 583 1320 L 582 1320 L 582 1324 L 580 1326 L 580 1328 L 579 1329 L 579 1332 L 577 1334 L 577 1338 L 575 1340 L 575 1343 L 573 1345 L 573 1349 L 572 1350 L 572 1353 L 570 1355 L 570 1359 L 569 1360 L 568 1360 L 568 1364 L 567 1365 L 567 1368 L 565 1370 L 565 1374 L 563 1376 L 563 1379 L 561 1381 L 561 1383 L 560 1384 L 560 1387 L 558 1389 L 558 1393 L 556 1395 L 556 1398 L 555 1399 L 555 1400 L 554 1401 L 554 1404 L 553 1405 L 553 1408 L 551 1410 L 551 1414 L 549 1416 L 549 1419 L 548 1420 L 548 1423 L 547 1424 L 547 1425 L 546 1426 L 546 1427 L 544 1429 L 544 1433 L 542 1435 L 542 1438 L 541 1439 L 541 1443 L 539 1445 L 539 1448 L 537 1450 L 537 1454 L 535 1456 L 535 1457 L 536 1458 L 534 1460 L 534 1464 L 533 1465 L 532 1465 L 532 1469 L 530 1471 L 530 1474 L 529 1475 L 529 1479 L 527 1481 L 527 1483 L 525 1485 L 525 1488 L 523 1490 L 523 1494 L 522 1495 L 522 1498 L 520 1500 L 520 1504 L 519 1505 L 518 1505 L 518 1509 L 516 1511 L 516 1512 L 517 1513 L 515 1515 L 515 1519 L 513 1521 L 513 1524 L 511 1526 L 511 1530 L 510 1531 L 510 1534 L 508 1536 L 508 1540 L 506 1542 L 506 1545 L 504 1547 L 504 1551 L 503 1552 L 503 1555 L 501 1557 L 501 1561 L 500 1562 L 499 1562 L 499 1566 L 498 1567 L 498 1568 L 497 1569 L 497 1570 L 496 1571 L 496 1574 L 494 1576 L 494 1580 L 492 1582 L 492 1585 L 491 1586 L 491 1589 L 489 1591 L 489 1595 L 487 1597 L 487 1600 L 485 1602 L 485 1606 L 484 1607 L 484 1609 L 483 1610 L 482 1610 L 482 1614 L 480 1616 L 480 1619 L 479 1620 L 479 1621 L 478 1622 L 479 1623 L 479 1624 L 477 1626 L 477 1629 L 475 1631 L 475 1635 L 473 1637 L 473 1640 L 472 1641 L 472 1645 L 470 1647 L 470 1650 L 468 1652 L 468 1656 L 466 1658 L 466 1659 L 465 1660 L 465 1664 L 463 1666 L 463 1669 L 461 1671 L 461 1675 L 459 1677 L 460 1678 L 460 1679 L 458 1681 L 458 1685 L 457 1686 L 456 1686 L 456 1690 L 454 1692 L 454 1696 L 453 1697 L 453 1700 L 451 1702 L 451 1713 L 453 1715 L 453 1716 L 455 1718 L 457 1718 L 458 1719 L 458 1720 L 465 1720 L 467 1718 L 469 1718 L 469 1717 L 471 1715 L 473 1715 L 481 1707 L 481 1705 L 482 1704 L 483 1704 L 483 1703 L 485 1701 L 486 1701 L 486 1700 L 487 1699 L 488 1699 L 488 1697 L 496 1689 L 496 1688 L 497 1687 L 497 1686 L 503 1680 L 503 1678 L 512 1669 L 512 1667 L 513 1666 L 514 1666 L 517 1663 L 517 1662 L 518 1661 L 519 1661 L 519 1660 L 520 1659 L 521 1659 L 522 1658 L 522 1656 L 529 1649 L 529 1647 L 540 1636 L 540 1634 L 547 1627 L 547 1626 L 555 1618 L 555 1616 L 564 1607 L 564 1605 L 572 1597 L 572 1596 L 574 1594 L 574 1593 L 575 1592 L 576 1592 L 576 1591 L 577 1590 L 578 1590 L 578 1589 L 579 1588 L 579 1587 L 588 1578 L 588 1576 L 597 1567 L 597 1565 L 605 1557 L 605 1555 L 606 1554 L 607 1554 L 607 1553 L 608 1552 L 609 1552 L 612 1549 L 612 1547 L 619 1540 L 619 1538 L 629 1528 L 629 1526 L 636 1519 L 636 1518 L 643 1511 L 643 1509 L 650 1502 L 650 1500 L 660 1490 L 660 1489 L 661 1488 L 661 1487 L 663 1485 L 664 1485 L 664 1484 L 666 1482 L 666 1481 L 674 1473 L 674 1471 L 683 1462 L 683 1460 L 690 1453 L 690 1451 L 691 1450 L 692 1450 L 693 1449 L 693 1448 L 694 1447 L 695 1447 L 695 1446 L 696 1445 L 697 1445 L 697 1443 L 705 1435 L 705 1433 L 712 1426 L 712 1424 L 719 1417 L 719 1416 L 728 1407 L 728 1405 L 735 1398 L 735 1396 L 743 1388 L 743 1386 L 746 1383 L 747 1383 L 747 1382 L 751 1378 L 752 1378 L 752 1376 L 761 1367 L 761 1365 L 768 1358 L 768 1356 L 776 1348 L 776 1346 L 777 1345 L 778 1345 L 778 1344 L 779 1343 L 780 1343 L 781 1342 L 781 1341 L 782 1340 L 783 1340 L 783 1339 L 784 1338 L 785 1338 L 785 1336 L 793 1328 L 793 1326 L 800 1319 L 800 1317 L 809 1308 L 809 1307 L 817 1299 L 817 1298 L 818 1297 L 818 1296 L 826 1288 L 826 1286 L 833 1279 L 833 1277 L 842 1268 L 842 1267 L 850 1259 L 850 1257 L 857 1250 L 857 1248 L 866 1239 L 866 1237 L 867 1236 L 868 1236 L 869 1235 L 869 1234 L 870 1233 L 871 1233 L 871 1232 L 872 1231 L 873 1231 L 873 1230 L 875 1228 L 875 1227 L 883 1219 L 883 1217 L 892 1208 L 892 1206 L 900 1198 L 900 1197 L 909 1188 L 909 1186 L 916 1179 L 916 1177 L 928 1165 L 928 1163 L 937 1154 L 937 1153 L 945 1145 L 945 1143 L 957 1131 L 957 1129 L 964 1122 L 964 1120 L 965 1119 L 966 1119 L 966 1118 L 967 1117 L 968 1117 L 968 1116 L 970 1114 L 971 1114 L 971 1113 L 972 1112 L 973 1112 L 973 1111 L 974 1110 L 975 1110 L 975 1109 L 976 1108 L 976 1107 L 985 1098 L 985 1096 L 995 1086 L 995 1084 L 1007 1072 L 1007 1071 L 1014 1064 L 1014 1062 L 1026 1050 L 1026 1048 L 1042 1032 L 1042 1030 L 1044 1028 L 1044 1019 L 1040 1015 L 1039 1015 L 1037 1013 L 985 1013 L 983 1011 L 981 1011 L 976 1006 L 976 1004 L 975 1003 L 975 999 L 976 998 L 976 995 L 978 993 L 978 991 L 980 989 L 980 987 L 982 985 L 982 983 L 983 982 L 983 979 L 985 977 L 985 975 L 987 973 L 987 971 L 989 969 L 988 968 L 988 967 L 990 965 L 990 963 L 992 961 L 992 959 L 993 958 L 994 958 L 994 956 L 995 955 L 995 951 L 997 949 L 997 948 L 999 946 L 999 942 L 1001 940 L 1001 938 L 1002 937 L 1002 936 L 1004 934 L 1004 932 L 1006 930 L 1006 927 L 1007 926 L 1007 924 L 1009 922 L 1009 920 L 1011 918 L 1011 916 L 1013 914 L 1013 911 L 1014 910 L 1014 902 L 1013 901 L 1013 900 L 1011 898 L 1011 896 L 1009 894 L 1007 894 L 1006 893 L 1006 892 L 1004 892 L 1002 890 L 907 890 L 905 888 L 903 888 L 897 882 L 897 871 L 898 870 L 899 870 L 899 864 L 900 863 L 900 862 L 902 860 L 902 856 L 904 854 L 904 851 L 906 849 L 906 845 L 907 844 L 907 841 L 909 839 L 909 835 L 911 833 L 911 830 L 913 828 L 913 827 L 912 826 L 913 825 L 913 824 L 914 823 L 914 820 L 916 818 L 916 814 L 917 813 L 918 813 L 918 809 L 919 808 L 919 805 L 921 803 L 921 801 L 923 799 L 923 795 L 925 793 L 925 790 L 926 789 L 926 786 L 928 784 L 928 780 L 930 778 L 930 775 L 931 774 L 931 773 L 932 772 L 931 771 L 932 770 L 932 769 L 933 768 L 933 765 L 935 763 L 935 759 L 937 757 L 937 754 L 938 753 L 938 750 L 939 749 L 939 748 L 940 747 L 940 746 L 942 744 L 942 740 L 944 738 L 944 735 L 945 734 L 945 730 L 947 728 L 947 725 L 949 723 L 949 719 L 950 718 L 950 717 L 952 715 L 952 709 L 953 708 L 954 708 L 954 706 L 956 704 L 956 700 L 957 699 L 957 696 L 959 694 L 959 690 L 961 688 L 961 685 L 963 683 L 963 680 L 964 679 L 964 675 L 966 673 L 966 669 L 967 668 L 968 668 L 968 666 L 969 665 L 969 664 L 970 663 L 969 662 L 970 661 L 970 660 L 971 659 L 971 656 L 973 654 L 973 650 L 975 648 L 975 645 L 976 644 L 976 641 L 978 639 L 978 635 L 980 633 L 980 630 L 982 628 L 982 626 L 983 625 L 983 621 L 984 620 L 985 620 L 985 616 L 987 614 L 987 611 L 988 610 L 988 609 L 989 608 L 988 607 L 988 606 L 990 604 L 990 601 L 992 599 L 992 595 L 994 593 L 994 590 L 995 589 L 995 585 L 997 583 L 997 580 L 999 578 L 999 574 L 1001 572 L 1001 569 L 1002 568 L 1002 566 L 1004 564 L 1004 561 L 1006 559 L 1006 555 L 1008 553 L 1007 552 L 1007 551 L 1009 549 L 1009 545 L 1010 544 L 1011 544 L 1011 540 L 1013 538 L 1013 535 L 1014 534 L 1014 530 L 1016 528 L 1016 526 L 1018 524 L 1018 521 L 1020 519 L 1020 518 L 1019 517 L 1020 516 L 1020 515 L 1021 514 L 1021 511 L 1023 509 L 1023 505 L 1024 504 L 1025 504 L 1025 500 L 1026 499 L 1026 498 L 1027 497 L 1027 496 L 1028 495 L 1028 492 L 1030 490 L 1030 486 L 1032 484 L 1032 483 L 1033 482 L 1033 478 L 1035 476 L 1035 473 L 1037 471 L 1037 467 L 1039 465 L 1039 462 L 1040 461 L 1040 457 L 1041 456 L 1042 456 L 1042 452 L 1044 450 L 1044 447 L 1045 446 L 1045 442 L 1047 440 L 1047 438 L 1049 436 L 1049 433 L 1051 431 L 1051 427 L 1052 426 L 1052 423 L 1054 421 L 1054 417 L 1055 416 L 1056 416 L 1056 414 L 1058 412 L 1058 411 L 1057 410 L 1058 409 L 1058 408 L 1059 407 L 1059 404 L 1061 402 L 1061 398 L 1063 396 L 1063 395 L 1064 394 L 1064 390 L 1066 388 L 1066 385 L 1068 383 L 1068 379 L 1070 377 L 1070 374 L 1071 373 L 1071 371 L 1073 369 L 1073 366 L 1075 364 L 1075 360 L 1077 358 L 1077 357 L 1076 356 L 1078 354 L 1078 350 L 1080 348 L 1080 345 L 1082 343 L 1082 339 L 1083 338 L 1083 329 L 1082 328 L 1082 325 L 1080 323 L 1080 322 L 1079 322 L 1078 321 L 1078 319 L 1074 315 L 1072 315 L 1070 313 L 1069 313 L 1068 312 L 1066 312 L 1064 310 L 1055 310 L 1053 308 L 1040 308 L 1038 310 L 1012 310 L 1010 308 L 1009 308 L 1007 310 L 986 310 L 984 308 L 980 308 L 978 310 L 943 310 L 941 308 L 921 308 L 919 310 L 874 310 L 872 308 L 857 308 L 855 310 L 819 310 L 818 309 L 817 309 L 816 310 L 724 310 L 722 308 L 717 308 L 715 310 L 695 310 L 693 308 Z"/>
<path d="M 1313 308 L 1311 310 L 1302 310 L 1300 312 L 1297 312 L 1296 313 L 1295 313 L 1294 314 L 1293 313 L 1292 314 L 1291 314 L 1290 315 L 1289 315 L 1287 317 L 1285 317 L 1282 320 L 1280 320 L 1271 329 L 1271 331 L 1266 336 L 1266 338 L 1264 340 L 1264 342 L 1263 343 L 1262 343 L 1262 347 L 1260 349 L 1260 350 L 1261 351 L 1259 353 L 1259 357 L 1257 359 L 1257 361 L 1255 363 L 1255 366 L 1254 367 L 1254 370 L 1252 372 L 1252 376 L 1250 378 L 1250 381 L 1248 383 L 1248 387 L 1247 388 L 1247 391 L 1245 393 L 1245 397 L 1243 399 L 1243 402 L 1242 403 L 1242 404 L 1241 405 L 1242 406 L 1241 407 L 1241 408 L 1240 409 L 1240 412 L 1238 414 L 1238 418 L 1237 419 L 1236 419 L 1236 421 L 1235 422 L 1235 427 L 1233 429 L 1233 431 L 1231 433 L 1231 437 L 1229 439 L 1229 442 L 1228 443 L 1228 447 L 1227 448 L 1226 448 L 1226 452 L 1224 454 L 1224 457 L 1223 458 L 1223 459 L 1222 460 L 1223 461 L 1223 462 L 1221 464 L 1221 467 L 1219 469 L 1219 473 L 1217 475 L 1217 478 L 1216 479 L 1216 483 L 1214 485 L 1214 488 L 1212 490 L 1212 494 L 1210 496 L 1210 499 L 1209 500 L 1209 504 L 1208 505 L 1207 505 L 1207 509 L 1205 511 L 1205 514 L 1204 515 L 1204 516 L 1203 517 L 1204 518 L 1204 519 L 1202 521 L 1202 524 L 1200 526 L 1200 528 L 1198 530 L 1198 535 L 1197 536 L 1197 540 L 1195 542 L 1195 545 L 1193 547 L 1193 549 L 1191 551 L 1191 554 L 1190 555 L 1190 559 L 1188 561 L 1188 564 L 1186 566 L 1186 570 L 1184 572 L 1185 573 L 1185 574 L 1183 576 L 1183 578 L 1181 580 L 1181 583 L 1179 585 L 1179 590 L 1178 591 L 1178 595 L 1176 597 L 1176 600 L 1174 602 L 1174 606 L 1172 608 L 1172 609 L 1173 610 L 1171 612 L 1171 616 L 1169 618 L 1169 620 L 1168 621 L 1167 621 L 1167 625 L 1166 626 L 1166 631 L 1164 633 L 1164 635 L 1162 637 L 1162 640 L 1160 642 L 1160 646 L 1159 647 L 1159 650 L 1157 652 L 1157 656 L 1155 658 L 1155 661 L 1153 663 L 1153 664 L 1154 665 L 1153 666 L 1153 667 L 1152 668 L 1152 671 L 1150 673 L 1150 677 L 1149 678 L 1148 678 L 1148 682 L 1147 683 L 1147 686 L 1145 688 L 1145 692 L 1143 694 L 1143 697 L 1141 699 L 1141 703 L 1140 704 L 1140 705 L 1138 707 L 1138 711 L 1136 713 L 1136 716 L 1135 717 L 1135 718 L 1134 719 L 1135 720 L 1134 721 L 1134 722 L 1133 723 L 1133 726 L 1131 728 L 1131 734 L 1130 735 L 1129 735 L 1129 739 L 1128 740 L 1128 741 L 1127 742 L 1127 743 L 1126 744 L 1126 747 L 1124 749 L 1124 753 L 1122 755 L 1122 758 L 1121 759 L 1121 762 L 1119 764 L 1119 768 L 1117 770 L 1117 773 L 1116 774 L 1116 775 L 1115 776 L 1116 777 L 1115 778 L 1115 779 L 1114 780 L 1114 783 L 1112 785 L 1112 789 L 1110 791 L 1110 794 L 1109 795 L 1109 799 L 1107 801 L 1107 804 L 1105 806 L 1105 810 L 1103 812 L 1103 815 L 1102 816 L 1102 818 L 1100 820 L 1100 825 L 1098 827 L 1098 830 L 1097 831 L 1097 832 L 1096 833 L 1097 834 L 1096 835 L 1096 836 L 1095 837 L 1095 839 L 1094 840 L 1093 840 L 1093 844 L 1091 846 L 1091 849 L 1090 850 L 1090 854 L 1088 856 L 1088 859 L 1086 861 L 1086 865 L 1084 867 L 1084 870 L 1083 871 L 1083 875 L 1081 877 L 1081 880 L 1079 882 L 1079 886 L 1077 888 L 1078 889 L 1078 890 L 1076 892 L 1076 896 L 1075 897 L 1074 897 L 1074 901 L 1072 903 L 1072 906 L 1071 907 L 1071 911 L 1069 913 L 1069 916 L 1067 918 L 1067 922 L 1065 924 L 1065 927 L 1064 928 L 1064 932 L 1062 934 L 1062 942 L 1064 944 L 1064 946 L 1065 947 L 1065 949 L 1069 953 L 1071 953 L 1073 955 L 1076 955 L 1077 956 L 1078 956 L 1079 957 L 1140 957 L 1141 956 L 1143 958 L 1145 958 L 1150 963 L 1150 965 L 1152 967 L 1152 977 L 1150 979 L 1150 982 L 1148 984 L 1148 986 L 1147 987 L 1147 990 L 1145 992 L 1145 996 L 1143 998 L 1143 1001 L 1141 1003 L 1141 1005 L 1140 1006 L 1140 1009 L 1138 1011 L 1138 1015 L 1136 1017 L 1136 1020 L 1135 1021 L 1135 1022 L 1134 1023 L 1135 1024 L 1134 1025 L 1134 1026 L 1133 1027 L 1133 1029 L 1132 1030 L 1131 1030 L 1131 1034 L 1129 1036 L 1129 1039 L 1128 1040 L 1128 1042 L 1126 1044 L 1126 1048 L 1125 1049 L 1124 1049 L 1124 1053 L 1122 1055 L 1122 1058 L 1121 1059 L 1121 1061 L 1119 1063 L 1119 1067 L 1117 1069 L 1117 1072 L 1115 1074 L 1115 1075 L 1116 1076 L 1114 1078 L 1114 1080 L 1112 1082 L 1112 1086 L 1110 1088 L 1110 1091 L 1109 1092 L 1109 1095 L 1108 1096 L 1108 1097 L 1107 1098 L 1107 1101 L 1105 1103 L 1105 1105 L 1103 1107 L 1103 1110 L 1102 1111 L 1102 1115 L 1100 1117 L 1100 1120 L 1098 1122 L 1098 1124 L 1096 1126 L 1096 1127 L 1097 1128 L 1095 1130 L 1095 1134 L 1093 1136 L 1093 1139 L 1091 1141 L 1091 1145 L 1090 1146 L 1090 1149 L 1088 1151 L 1088 1153 L 1086 1155 L 1086 1158 L 1084 1160 L 1084 1164 L 1083 1165 L 1083 1168 L 1081 1170 L 1081 1172 L 1079 1174 L 1079 1177 L 1078 1178 L 1078 1179 L 1077 1180 L 1078 1181 L 1078 1182 L 1076 1184 L 1076 1187 L 1074 1189 L 1074 1193 L 1072 1195 L 1072 1197 L 1071 1198 L 1071 1201 L 1069 1203 L 1069 1206 L 1067 1208 L 1067 1212 L 1065 1214 L 1065 1216 L 1064 1217 L 1064 1220 L 1062 1222 L 1062 1226 L 1061 1227 L 1060 1227 L 1060 1231 L 1059 1232 L 1059 1233 L 1058 1234 L 1058 1235 L 1057 1236 L 1057 1239 L 1055 1241 L 1055 1245 L 1053 1247 L 1053 1250 L 1052 1251 L 1052 1254 L 1050 1256 L 1050 1258 L 1048 1260 L 1048 1264 L 1046 1266 L 1046 1269 L 1045 1270 L 1045 1272 L 1043 1274 L 1043 1279 L 1041 1281 L 1041 1283 L 1039 1285 L 1040 1286 L 1040 1287 L 1038 1289 L 1038 1293 L 1036 1295 L 1036 1298 L 1034 1300 L 1034 1302 L 1033 1303 L 1033 1306 L 1031 1308 L 1031 1312 L 1029 1314 L 1029 1317 L 1027 1319 L 1027 1323 L 1026 1324 L 1026 1327 L 1024 1329 L 1024 1331 L 1022 1333 L 1022 1336 L 1021 1337 L 1021 1341 L 1019 1343 L 1019 1346 L 1017 1348 L 1017 1352 L 1015 1354 L 1015 1355 L 1014 1356 L 1014 1360 L 1012 1362 L 1012 1365 L 1010 1367 L 1010 1371 L 1008 1373 L 1008 1374 L 1007 1375 L 1007 1379 L 1005 1381 L 1005 1384 L 1003 1386 L 1003 1390 L 1002 1391 L 1002 1394 L 1000 1396 L 1000 1400 L 998 1402 L 998 1405 L 996 1407 L 996 1409 L 995 1410 L 995 1415 L 993 1417 L 993 1419 L 991 1421 L 991 1424 L 990 1425 L 990 1426 L 989 1427 L 990 1428 L 989 1429 L 989 1430 L 988 1431 L 988 1434 L 986 1436 L 986 1440 L 984 1442 L 984 1445 L 983 1446 L 983 1449 L 981 1451 L 981 1455 L 979 1457 L 979 1459 L 977 1461 L 977 1464 L 976 1465 L 976 1469 L 974 1471 L 974 1474 L 972 1476 L 972 1480 L 970 1482 L 971 1483 L 971 1484 L 969 1486 L 969 1488 L 967 1490 L 967 1495 L 965 1497 L 965 1500 L 964 1501 L 964 1503 L 962 1505 L 962 1509 L 961 1510 L 960 1510 L 960 1514 L 958 1516 L 958 1519 L 957 1520 L 957 1524 L 955 1526 L 955 1529 L 953 1531 L 953 1535 L 951 1537 L 951 1538 L 950 1539 L 950 1545 L 948 1547 L 948 1549 L 947 1550 L 946 1550 L 946 1554 L 945 1555 L 945 1558 L 943 1560 L 943 1564 L 941 1566 L 941 1569 L 939 1571 L 939 1575 L 938 1576 L 938 1577 L 936 1579 L 936 1583 L 934 1585 L 934 1588 L 933 1589 L 933 1591 L 931 1593 L 931 1598 L 929 1600 L 929 1602 L 927 1604 L 927 1607 L 926 1608 L 926 1612 L 924 1614 L 924 1617 L 922 1619 L 922 1623 L 920 1625 L 920 1626 L 919 1627 L 919 1631 L 917 1633 L 917 1637 L 916 1638 L 915 1638 L 915 1642 L 913 1644 L 914 1645 L 914 1646 L 912 1648 L 912 1652 L 910 1654 L 910 1657 L 908 1659 L 908 1661 L 907 1662 L 907 1665 L 905 1667 L 905 1671 L 903 1673 L 903 1676 L 901 1678 L 901 1682 L 900 1683 L 900 1686 L 898 1688 L 898 1692 L 896 1694 L 896 1695 L 895 1696 L 895 1697 L 894 1698 L 895 1699 L 895 1700 L 893 1702 L 893 1705 L 891 1707 L 891 1721 L 893 1723 L 893 1726 L 898 1731 L 898 1732 L 899 1732 L 901 1734 L 902 1734 L 903 1735 L 905 1735 L 907 1737 L 914 1737 L 916 1739 L 976 1739 L 978 1737 L 995 1737 L 997 1739 L 1105 1739 L 1107 1737 L 1116 1737 L 1118 1739 L 1154 1739 L 1154 1738 L 1155 1737 L 1164 1737 L 1166 1735 L 1170 1735 L 1171 1734 L 1172 1734 L 1174 1732 L 1176 1732 L 1180 1728 L 1182 1728 L 1194 1716 L 1194 1714 L 1197 1711 L 1197 1709 L 1199 1707 L 1199 1705 L 1200 1704 L 1201 1704 L 1201 1702 L 1203 1700 L 1203 1699 L 1202 1698 L 1203 1697 L 1203 1696 L 1204 1695 L 1204 1692 L 1206 1690 L 1206 1686 L 1207 1685 L 1208 1685 L 1208 1681 L 1209 1680 L 1209 1677 L 1211 1675 L 1211 1671 L 1213 1669 L 1213 1666 L 1215 1664 L 1215 1660 L 1216 1659 L 1216 1656 L 1218 1654 L 1218 1650 L 1220 1648 L 1220 1645 L 1222 1643 L 1222 1642 L 1221 1641 L 1222 1640 L 1222 1639 L 1223 1638 L 1223 1635 L 1225 1633 L 1225 1629 L 1226 1628 L 1227 1628 L 1227 1624 L 1228 1623 L 1228 1620 L 1230 1618 L 1230 1614 L 1232 1612 L 1232 1609 L 1234 1607 L 1234 1603 L 1235 1602 L 1235 1599 L 1237 1597 L 1237 1593 L 1239 1591 L 1239 1588 L 1241 1586 L 1241 1585 L 1240 1584 L 1241 1583 L 1241 1582 L 1242 1581 L 1242 1578 L 1244 1576 L 1244 1572 L 1245 1571 L 1246 1571 L 1246 1567 L 1247 1566 L 1247 1563 L 1249 1561 L 1249 1557 L 1251 1555 L 1251 1552 L 1253 1550 L 1253 1546 L 1254 1545 L 1254 1542 L 1256 1540 L 1256 1536 L 1258 1534 L 1258 1531 L 1259 1530 L 1259 1529 L 1260 1528 L 1259 1527 L 1260 1526 L 1260 1525 L 1261 1524 L 1261 1521 L 1263 1519 L 1263 1515 L 1264 1514 L 1265 1514 L 1265 1510 L 1266 1509 L 1266 1506 L 1268 1504 L 1268 1500 L 1270 1498 L 1270 1495 L 1272 1493 L 1272 1489 L 1273 1488 L 1273 1485 L 1275 1483 L 1275 1479 L 1277 1477 L 1277 1474 L 1278 1473 L 1278 1472 L 1279 1471 L 1278 1470 L 1280 1468 L 1280 1464 L 1282 1462 L 1282 1458 L 1283 1457 L 1284 1457 L 1284 1453 L 1285 1452 L 1285 1450 L 1287 1448 L 1287 1445 L 1289 1443 L 1289 1439 L 1291 1437 L 1291 1434 L 1292 1433 L 1292 1428 L 1294 1426 L 1294 1422 L 1296 1420 L 1296 1417 L 1297 1416 L 1297 1415 L 1298 1414 L 1298 1413 L 1299 1412 L 1299 1407 L 1301 1405 L 1301 1401 L 1302 1400 L 1303 1400 L 1303 1398 L 1304 1397 L 1304 1393 L 1306 1391 L 1306 1388 L 1308 1386 L 1308 1382 L 1310 1380 L 1310 1377 L 1311 1376 L 1311 1373 L 1313 1371 L 1313 1367 L 1315 1365 L 1315 1362 L 1316 1361 L 1316 1360 L 1317 1359 L 1316 1358 L 1316 1357 L 1318 1355 L 1318 1352 L 1320 1350 L 1320 1346 L 1322 1344 L 1322 1341 L 1323 1340 L 1323 1336 L 1325 1334 L 1325 1331 L 1327 1329 L 1327 1325 L 1329 1323 L 1329 1320 L 1330 1319 L 1330 1316 L 1332 1314 L 1332 1310 L 1334 1308 L 1334 1305 L 1335 1304 L 1335 1300 L 1337 1298 L 1337 1295 L 1339 1293 L 1339 1289 L 1341 1287 L 1341 1284 L 1342 1283 L 1342 1281 L 1344 1279 L 1344 1274 L 1346 1272 L 1346 1270 L 1348 1268 L 1348 1263 L 1349 1262 L 1349 1259 L 1351 1257 L 1351 1253 L 1353 1251 L 1353 1248 L 1354 1247 L 1354 1243 L 1356 1241 L 1356 1238 L 1358 1236 L 1358 1232 L 1360 1230 L 1360 1227 L 1361 1226 L 1361 1222 L 1363 1220 L 1363 1217 L 1365 1215 L 1365 1211 L 1367 1209 L 1366 1208 L 1367 1207 L 1367 1206 L 1368 1205 L 1368 1202 L 1370 1200 L 1370 1196 L 1372 1194 L 1372 1191 L 1373 1190 L 1373 1186 L 1375 1184 L 1375 1181 L 1377 1179 L 1377 1175 L 1379 1173 L 1379 1170 L 1380 1169 L 1380 1167 L 1382 1165 L 1382 1162 L 1384 1160 L 1384 1154 L 1386 1152 L 1386 1151 L 1387 1150 L 1387 1145 L 1389 1143 L 1389 1139 L 1391 1137 L 1391 1135 L 1392 1134 L 1392 1131 L 1394 1129 L 1394 1125 L 1395 1124 L 1396 1124 L 1396 1120 L 1398 1118 L 1398 1115 L 1399 1114 L 1399 1110 L 1401 1108 L 1401 1105 L 1403 1103 L 1403 1099 L 1405 1097 L 1405 1096 L 1404 1095 L 1406 1093 L 1406 1089 L 1408 1087 L 1408 1084 L 1410 1082 L 1410 1078 L 1411 1077 L 1411 1074 L 1413 1072 L 1413 1068 L 1414 1067 L 1415 1067 L 1415 1063 L 1417 1061 L 1417 1058 L 1418 1057 L 1418 1053 L 1420 1051 L 1420 1048 L 1422 1046 L 1422 1042 L 1424 1040 L 1423 1039 L 1423 1038 L 1425 1036 L 1425 1034 L 1427 1032 L 1427 1029 L 1429 1027 L 1429 1023 L 1430 1022 L 1430 1019 L 1432 1017 L 1432 1011 L 1433 1010 L 1434 1010 L 1434 1008 L 1436 1006 L 1436 1002 L 1437 1001 L 1437 998 L 1439 996 L 1439 992 L 1441 990 L 1441 987 L 1442 986 L 1442 983 L 1444 981 L 1444 977 L 1446 975 L 1446 972 L 1448 970 L 1448 966 L 1449 965 L 1449 962 L 1451 960 L 1451 956 L 1453 954 L 1453 951 L 1455 949 L 1455 945 L 1456 944 L 1456 941 L 1458 939 L 1458 935 L 1459 934 L 1460 934 L 1460 930 L 1461 929 L 1461 926 L 1463 924 L 1463 920 L 1465 918 L 1465 915 L 1467 913 L 1467 909 L 1468 908 L 1468 905 L 1470 903 L 1470 899 L 1472 897 L 1472 894 L 1474 892 L 1474 888 L 1475 887 L 1475 884 L 1477 882 L 1477 878 L 1478 877 L 1479 877 L 1479 875 L 1480 874 L 1480 871 L 1481 870 L 1481 869 L 1482 868 L 1482 865 L 1484 863 L 1484 859 L 1486 857 L 1486 854 L 1487 853 L 1487 850 L 1489 848 L 1489 844 L 1491 842 L 1491 839 L 1492 838 L 1492 837 L 1493 836 L 1493 833 L 1494 832 L 1494 829 L 1496 827 L 1496 823 L 1498 821 L 1498 818 L 1499 817 L 1499 813 L 1501 811 L 1501 808 L 1503 806 L 1503 802 L 1505 800 L 1505 797 L 1506 796 L 1506 794 L 1508 792 L 1508 789 L 1510 787 L 1510 783 L 1512 781 L 1512 776 L 1513 775 L 1513 773 L 1515 771 L 1515 766 L 1517 764 L 1517 761 L 1518 760 L 1518 756 L 1520 754 L 1520 752 L 1521 751 L 1522 751 L 1522 747 L 1524 745 L 1524 742 L 1525 741 L 1525 737 L 1527 735 L 1527 732 L 1529 730 L 1529 726 L 1531 724 L 1531 723 L 1530 722 L 1532 720 L 1532 716 L 1534 714 L 1534 711 L 1536 709 L 1536 705 L 1537 704 L 1537 701 L 1539 699 L 1539 695 L 1540 694 L 1541 694 L 1541 690 L 1543 688 L 1543 685 L 1544 684 L 1544 680 L 1546 678 L 1546 675 L 1548 673 L 1548 671 L 1550 669 L 1550 668 L 1549 667 L 1551 665 L 1551 661 L 1553 659 L 1553 656 L 1555 654 L 1555 650 L 1556 649 L 1556 646 L 1558 644 L 1558 640 L 1560 638 L 1560 635 L 1562 633 L 1562 631 L 1563 630 L 1563 627 L 1565 625 L 1565 621 L 1567 619 L 1567 614 L 1569 612 L 1569 611 L 1568 610 L 1570 608 L 1570 604 L 1572 602 L 1572 599 L 1574 597 L 1574 593 L 1575 592 L 1575 591 L 1577 589 L 1577 585 L 1579 583 L 1579 580 L 1580 579 L 1580 578 L 1581 577 L 1581 574 L 1582 573 L 1582 570 L 1584 568 L 1584 564 L 1586 562 L 1586 559 L 1587 558 L 1587 557 L 1588 556 L 1587 555 L 1588 554 L 1588 553 L 1589 552 L 1589 549 L 1591 547 L 1591 543 L 1593 541 L 1593 538 L 1594 537 L 1594 534 L 1596 532 L 1596 528 L 1598 526 L 1598 523 L 1599 522 L 1599 521 L 1600 520 L 1600 517 L 1601 516 L 1601 514 L 1602 513 L 1603 513 L 1603 509 L 1605 507 L 1605 503 L 1607 501 L 1606 500 L 1606 499 L 1608 497 L 1608 494 L 1610 492 L 1610 488 L 1612 486 L 1612 483 L 1613 482 L 1613 478 L 1615 476 L 1615 473 L 1617 471 L 1617 467 L 1619 465 L 1619 462 L 1620 461 L 1620 459 L 1622 457 L 1622 452 L 1624 450 L 1624 448 L 1625 447 L 1625 442 L 1627 440 L 1627 438 L 1629 436 L 1629 433 L 1631 431 L 1631 427 L 1632 426 L 1632 423 L 1634 421 L 1634 417 L 1635 416 L 1636 416 L 1636 412 L 1638 410 L 1638 409 L 1637 408 L 1639 406 L 1639 402 L 1641 400 L 1641 398 L 1643 396 L 1643 393 L 1644 392 L 1644 389 L 1646 387 L 1646 383 L 1648 381 L 1648 378 L 1650 376 L 1650 372 L 1651 371 L 1651 368 L 1653 366 L 1653 362 L 1655 360 L 1655 357 L 1657 355 L 1657 354 L 1656 353 L 1657 352 L 1657 351 L 1658 350 L 1658 349 L 1660 347 L 1660 341 L 1662 339 L 1662 330 L 1660 328 L 1660 324 L 1658 322 L 1658 320 L 1657 319 L 1656 319 L 1655 318 L 1655 317 L 1654 317 L 1653 316 L 1653 315 L 1651 315 L 1650 314 L 1649 314 L 1648 313 L 1647 313 L 1646 312 L 1644 312 L 1642 310 L 1637 310 L 1636 309 L 1635 309 L 1634 310 L 1599 310 L 1597 308 L 1579 308 L 1577 310 L 1537 310 L 1535 308 L 1530 308 L 1530 309 L 1529 310 L 1490 310 L 1489 309 L 1488 309 L 1487 310 L 1477 310 L 1476 309 L 1474 309 L 1473 310 L 1470 310 L 1468 308 L 1465 308 L 1463 310 L 1451 310 L 1449 308 L 1436 308 L 1434 310 L 1395 310 L 1393 308 L 1365 308 L 1363 310 L 1352 310 L 1350 308 L 1349 308 L 1347 310 L 1319 310 L 1318 309 L 1318 308 Z"/>
  </g>
</svg>
